<?xml version="1.0" standalone="no"?>
<!DOCTYPE svg PUBLIC "-//W3C//DTD SVG 20010904//EN"
 "http://www.w3.org/TR/2001/REC-SVG-20010904/DTD/svg10.dtd">
<svg version="1.0" xmlns="http://www.w3.org/2000/svg"
 width="430.000000pt" height="502.000000pt" viewBox="0 0 430.000000 502.000000"
 preserveAspectRatio="xMidYMid meet">

<g transform="translate(0.000000,502.000000) scale(0.100000,-0.100000)"
fill="#000000" stroke="none">
<path d="M1435 4980 c-3 -5 -39 -10 -79 -10 -48 0 -79 -5 -92 -15 -10 -8 -40
-15 -66 -15 -26 0 -50 -4 -53 -10 -4 -6 -55 -10 -119 -10 -110 0 -114 -1 -154
-30 -23 -16 -48 -42 -56 -57 -20 -40 -52 -67 -121 -102 -57 -30 -93 -72 -95
-111 0 -17 -50 -119 -65 -135 -13 -14 -154 -81 -185 -88 -22 -6 -34 -20 -77
-90 -6 -11 -36 -45 -67 -76 -31 -31 -56 -64 -56 -74 0 -9 -16 -49 -35 -88 -35
-72 -44 -122 -25 -134 6 -4 10 -60 10 -135 0 -75 -4 -131 -10 -135 -5 -3 -10
-18 -10 -33 0 -17 -13 -40 -37 -64 -33 -34 -36 -41 -25 -58 6 -11 12 -40 12
-65 0 -52 12 -75 87 -154 29 -31 53 -62 53 -69 0 -7 21 -35 47 -63 26 -27 54
-71 63 -97 27 -74 54 -115 90 -137 18 -11 58 -44 90 -72 31 -29 62 -53 68 -53
6 0 28 10 49 22 33 18 52 21 142 20 58 -1 109 -6 115 -12 13 -13 63 -13 71 0
3 6 23 10 43 10 20 0 46 7 56 15 11 8 30 15 42 15 13 0 26 5 29 10 3 6 19 10
35 10 16 0 32 5 35 10 3 6 46 10 94 10 75 0 91 -3 106 -20 10 -11 22 -20 27
-20 6 0 28 -15 49 -34 48 -40 84 -49 121 -30 36 19 70 18 111 -3 45 -23 92
-120 83 -170 -3 -18 -9 -48 -12 -67 -3 -19 -17 -45 -30 -57 -20 -19 -24 -32
-24 -79 l0 -57 80 -76 80 -77 0 -59 c0 -49 4 -65 25 -89 14 -17 25 -33 25 -37
0 -4 11 -20 25 -37 21 -25 25 -40 25 -98 0 -38 5 -72 10 -75 6 -3 10 -17 10
-29 0 -13 12 -45 26 -70 26 -47 26 -47 10 -100 -11 -35 -31 -66 -57 -92 -53
-51 -87 -124 -95 -199 -6 -56 -4 -63 20 -92 14 -17 26 -36 26 -41 0 -6 21 -21
47 -34 30 -14 49 -31 51 -43 2 -11 7 -29 11 -40 32 -81 41 -130 41 -228 0 -60
4 -109 10 -112 6 -3 10 -16 10 -28 0 -12 7 -31 15 -41 8 -11 15 -30 15 -42 0
-12 6 -27 14 -33 8 -7 27 -36 41 -64 15 -29 33 -59 40 -67 7 -8 25 -39 39 -69
22 -47 26 -68 26 -152 0 -99 5 -116 48 -177 25 -35 52 -41 72 -16 29 34 92 54
172 54 45 0 78 4 78 10 0 6 13 10 29 10 16 0 35 7 42 16 7 9 36 27 64 39 58
28 134 102 164 163 12 24 38 52 59 66 20 13 43 31 51 40 7 9 18 16 24 16 6 0
24 12 39 27 25 24 28 34 28 88 l0 60 80 80 80 80 0 72 c0 39 -4 75 -10 78 -5
3 -10 23 -10 44 0 41 15 61 88 116 22 17 52 53 67 83 22 44 31 52 54 52 16 0
37 10 51 25 13 14 29 25 37 25 7 0 13 4 13 10 0 5 16 27 35 49 19 21 35 49 35
62 0 13 7 33 15 43 8 11 15 30 15 43 0 13 5 32 12 42 9 15 9 25 0 46 -7 14
-12 47 -12 73 -1 26 -7 58 -15 72 -8 14 -14 39 -15 57 0 17 -4 35 -10 38 -5 3
-10 35 -10 70 0 35 -4 67 -10 70 -5 3 -10 36 -10 72 0 68 28 143 71 189 10 11
19 27 19 36 0 29 37 51 74 45 38 -6 46 3 46 54 0 54 51 50 79 -6 13 -27 14
-28 28 -9 21 29 72 131 88 178 8 22 15 64 15 92 0 73 -16 84 -118 84 -44 0
-84 -4 -87 -10 -3 -5 -16 -10 -29 -10 -12 0 -31 -7 -42 -15 -48 -37 -162 -10
-228 54 -24 24 -42 30 -81 33 -37 2 -51 7 -53 20 -4 23 54 85 101 108 42 21
124 27 155 11 69 -34 135 -61 152 -61 10 0 21 -4 24 -9 3 -5 18 -11 33 -14 16
-2 42 -10 59 -17 28 -12 37 -10 122 31 71 34 94 51 103 73 7 15 23 44 36 63
l24 35 -26 33 c-14 19 -25 37 -25 42 0 5 -20 28 -45 52 -58 56 -61 90 -9 120
19 12 50 21 68 21 17 0 37 5 43 11 8 8 13 5 18 -10 7 -24 45 -29 45 -6 0 8 -4
15 -10 15 -5 0 -10 7 -10 15 0 22 -77 109 -277 313 -124 126 -183 192 -183
207 0 12 -11 44 -25 71 -14 27 -25 53 -25 57 0 20 -73 96 -103 108 -18 7 -41
20 -52 30 -21 19 -92 47 -138 56 -15 3 -30 9 -33 14 -3 5 -20 9 -37 9 -35 0
-96 27 -129 57 -16 14 -22 15 -40 4 -25 -16 -33 -9 -17 17 11 17 9 24 -14 52
-15 17 -27 37 -27 45 0 7 -7 18 -16 26 -8 7 -24 30 -35 52 -19 36 -19 40 -4
63 11 18 24 24 50 24 29 0 39 -6 55 -32 11 -18 22 -37 24 -43 3 -6 9 -3 15 5
7 10 6 21 -3 35 -15 23 -28 77 -28 120 l0 30 -146 -3 c-81 -2 -151 -8 -157
-12 -19 -16 -72 -18 -111 -4 -21 8 -54 14 -72 14 -17 0 -55 11 -84 25 -37 18
-68 25 -109 25 -32 0 -61 5 -64 10 -3 6 -24 10 -46 10 l-39 0 0 -46 c0 -25 -8
-60 -17 -77 -51 -92 -72 -91 -191 9 -20 17 -51 38 -68 47 -17 9 -36 23 -43 31
-8 9 -21 16 -30 16 -9 0 -38 12 -66 25 -27 14 -55 25 -61 25 -21 0 -92 40 -98
55 -11 30 -6 100 9 119 21 27 19 58 -5 84 -17 18 -32 22 -80 22 -32 0 -62 -4
-65 -10 -3 -5 -33 -10 -65 -10 -32 0 -62 5 -65 10 -3 6 -21 10 -40 10 -19 0
-37 -4 -40 -10z m325 -106 c0 -8 -5 -12 -10 -9 -6 4 -8 11 -5 16 9 14 15 11
15 -7z m-880 -34 c0 -5 -4 -10 -10 -10 -5 0 -10 5 -10 10 0 6 5 10 10 10 6 0
10 -4 10 -10z m-20 -44 c0 -11 -19 -15 -25 -6 -3 5 1 10 9 10 9 0 16 -2 16 -4z
m-170 -116 c0 -5 -4 -10 -10 -10 -5 0 -10 5 -10 10 0 6 5 10 10 10 6 0 10 -4
10 -10z m2690 -620 c0 -5 -4 -10 -9 -10 -6 0 -13 5 -16 10 -3 6 1 10 9 10 9 0
16 -4 16 -10z m279 -294 c22 -14 43 -38 49 -55 6 -17 16 -31 21 -31 6 0 11
-13 11 -29 0 -17 5 -33 10 -36 7 -4 7 -13 0 -26 -11 -20 -64 -27 -75 -9 -3 6
-43 10 -88 10 -72 0 -84 3 -106 24 -15 13 -48 32 -76 41 -49 16 -65 29 -65 53
0 19 61 52 96 52 16 0 39 7 50 15 32 24 127 19 173 -9z m311 -226 c0 -5 -4
-10 -10 -10 -5 0 -10 5 -10 10 0 6 5 10 10 10 6 0 10 -4 10 -10z m-3900 -30
c0 -5 -2 -10 -4 -10 -3 0 -8 5 -11 10 -3 6 -1 10 4 10 6 0 11 -4 11 -10z
m4062 -522 c-15 -15 -26 -4 -18 18 5 13 9 15 18 6 9 -9 9 -15 0 -24z m-3612
-123 c7 -9 10 -19 6 -22 -8 -9 -38 9 -44 25 -5 17 23 15 38 -3z m1240 -346 c0
-11 -4 -17 -10 -14 -5 3 -10 13 -10 21 0 8 5 14 10 14 6 0 10 -9 10 -21z"/>
</g>
</svg>
